<?xml version="1.0" encoding="UTF-8"?><svg viewBox="0 0 99 76" xmlns="http://www.w3.org/2000/svg"><metadata><x:xmpmeta x:xmptk="Adobe XMP Core 5.6-c138 79.159824, 2016/09/14-01:09:01 " xmlns:x="adobe:ns:meta/"><rdf:RDF xmlns:rdf="http://www.w3.org/1999/02/22-rdf-syntax-ns#"><rdf:Description rdf:about=""/></rdf:RDF></x:xmpmeta></metadata><path transform="translate(-1631 -1117)" d="m1631 1193h38.8v-57.02h-38.8v57.02zm20.22-2.86a1.835 1.835 0 1 1 1.87 -1.84 1.855 1.855 0 0 1 -1.87 1.84zm-14.61-48.67h27.58v42.07h-27.58v-42.07zm13.58-19.11h62.17v24.72h5.48v-30.08h-73.13v16.54h5.48v-11.18zm22.11 36.51h28.81v5.37h-28.81v-5.37zm31.64-9.71v42.95h26.06v-42.95h-26.06zm13.61 1.78a0.62 0.62 0 1 1 -0.63 0.62 0.619 0.619 0 0 1 0.63 -0.62zm-3.75 2.06h7.5v0.59h-7.5v-0.59zm3.5 37.25a1.471 1.471 0 1 1 1.51 -1.47 1.492 1.492 0 0 1 -1.51 1.47zm8.52-5.05c-6.77 0.03-14.34 0.06-17.7 0.03v-29.53h17.7v29.5zm-45.59-18.76h-7.93v3.25h19.31v1.42h-19.31v2.94h28.81v-7.61h-20.88z"/></svg>