<?xml version="1.0" encoding="UTF-8"?><svg viewBox="0 0 60 96" xmlns="http://www.w3.org/2000/svg"><metadata><x:xmpmeta x:xmptk="Adobe XMP Core 5.6-c138 79.159824, 2016/09/14-01:09:01 " xmlns:x="adobe:ns:meta/"><rdf:RDF xmlns:rdf="http://www.w3.org/1999/02/22-rdf-syntax-ns#"><rdf:Description rdf:about=""/></rdf:RDF></x:xmpmeta></metadata><path transform="translate(-1170 -1107)" d="m1218 1182a3 3 0 0 1 -3 3h-30a3 3 0 0 1 0 -6h30a3 3 0 0 1 3 3zm-3 6h-30a3 3 0 0 0 0 6h30a3 3 0 0 0 0 -6zm-21 15h12a6 6 0 0 0 6 -6h-24a6 6 0 0 0 6 6zm36-66c0 16.31-9.83 18.21-11.68 36a3 3 0 0 1 -3 3h-30.64a3 3 0 0 1 -3 -3h-0.01c-1.84-17.79-11.67-19.69-11.67-36a30 30 0 0 1 60 0zm-17.85-9c-34.88 8.25-18 30-18 30 0-12 8.81-14.82 9-14.44-6.19 6-9 26.44-9 26.44h6v-12c17.06 0.94 12-27.94 12-30z"/></svg>