<?xml version="1.0" encoding="UTF-8"?><svg viewBox="0 0 44 30" xmlns="http://www.w3.org/2000/svg"><metadata><x:xmpmeta x:xmptk="Adobe XMP Core 5.6-c138 79.159824, 2016/09/14-01:09:01 " xmlns:x="adobe:ns:meta/"><rdf:RDF xmlns:rdf="http://www.w3.org/1999/02/22-rdf-syntax-ns#"><rdf:Description rdf:about=""/></rdf:RDF></x:xmpmeta></metadata><path transform="translate(-938 -7665)" d="M947.658,7675.9a9.55,9.55,0,1,1-9.615,9.55L938,7684.09A19.156,19.156,0,0,1,957.231,7665v5.45a13.716,13.716,0,0,0-9.713,3.99,14.666,14.666,0,0,0-1.366,1.58A10.661,10.661,0,0,1,947.658,7675.9Zm24.726,0a9.55,9.55,0,1,1-9.615,9.55l-0.043-1.36A19.156,19.156,0,0,1,981.957,7665v5.45a13.716,13.716,0,0,0-9.713,3.99,14.676,14.676,0,0,0-1.367,1.58A10.676,10.676,0,0,1,972.384,7675.9Z"/></svg>